<?xml version="1.0" encoding="UTF-8"?>
<!DOCTYPE svg PUBLIC "-//W3C//DTD SVG 1.1//EN" "http://www.w3.org/Graphics/SVG/1.1/DTD/svg11.dtd">
<!-- Creator: CorelDRAW X8 -->
<svg xmlns="http://www.w3.org/2000/svg" xml:space="preserve" width="25.3998mm" height="23.2408mm" version="1.1" style="shape-rendering:geometricPrecision; text-rendering:geometricPrecision; image-rendering:optimizeQuality; fill-rule:evenodd; clip-rule:evenodd"
viewBox="0 0 2540 2324"
 xmlns:xlink="http://www.w3.org/1999/xlink">
 <defs>
  <style type="text/css">
   <![CDATA[
    .fil0 {fill:#336699}
   ]]>
  </style>
 </defs>
 <g id="Camada_x0020_1">
  <metadata id="CorelCorpID_0Corel-Layer"/>
  <g id="_2630942294416">
   <g id="favorite-outline">
    <path class="fil0" d="M1841 0c-215,0 -431,102 -571,267 -140,-165 -356,-267 -572,-267 -393,0 -698,305 -698,698 0,483 432,877 1092,1461l178 165 178 -165c647,-597 1092,-991 1092,-1461 0,-393 -305,-698 -699,-698zm-558 1981l-13 0 -13 -13c-609,-546 -1003,-901 -1003,-1270 0,-254 190,-444 444,-444 191,0 381,127 458,305l241 0c63,-178 254,-305 444,-305 254,0 445,190 445,444 0,369 -394,724 -1003,1283z"/>
   </g>
  </g>
 </g>
</svg>
