<?xml version="1.0" encoding="UTF-8"?>
<!DOCTYPE svg PUBLIC "-//W3C//DTD SVG 1.1//EN" "http://www.w3.org/Graphics/SVG/1.1/DTD/svg11.dtd">
<!-- Creator: CorelDRAW X8 -->
<svg xmlns="http://www.w3.org/2000/svg" xml:space="preserve" width="33.8667mm" height="35.4732mm" version="1.1" style="shape-rendering:geometricPrecision; text-rendering:geometricPrecision; image-rendering:optimizeQuality; fill-rule:evenodd; clip-rule:evenodd"
viewBox="0 0 1039 1088"
 xmlns:xlink="http://www.w3.org/1999/xlink">
 <defs>
  <style type="text/css">
   <![CDATA[
    .fil4 {fill:#00CCFF}
    .fil5 {fill:lime}
    .fil2 {fill:#5A6672}
    .fil3 {fill:#DCE0E2}
    .fil0 {fill:#F2F2F2}
    .fil1 {fill:white}
   ]]>
  </style>
 </defs>
 <g id="Camada_x0020_1">
  <metadata id="CorelCorpID_0Corel-Layer"/>
  <g id="_2630893022864">
   <path class="fil0" d="M797 632l-125 23 276 173c36,-68 56,-145 56,-226 0,-260 -204,-472 -460,-486l0 329 86 -94 0 0c10,-11 26,-12 37,-2 11,10 11,26 2,37l-132 145c-5,5 -12,8 -19,8 -8,0 -15,-3 -20,-8l-131 -145c-10,-11 -9,-28 2,-37 10,-10 27,-9 37,1l85 95 1 -329c-257,13 -461,225 -461,486 0,83 21,161 57,229l282 -176 -125 -23c-15,-3 -24,-16 -22,-31 3,-14 17,-23 31,-21l192 35c8,1 14,6 18,12 4,6 5,14 3,21l-53 188 0 0c-4,14 -18,22 -32,19 -14,-4 -23,-19 -19,-33l35 -123 -283 177c88,128 235,212 402,212 169,0 317,-85 404,-215l-277 -174 34 123 0 0c4,14 -4,29 -18,32 -14,4 -28,-4 -32,-18l-53 -188c-2,-7 -1,-15 3,-21 4,-6 10,-11 17,-12l193 -35c14,-2 28,7 30,21 3,15 -7,28 -21,31z"/>
   <polygon class="fil1" points="0,921 0,921 0,921 "/>
   <path class="fil2" d="M464 627c-4,-6 -10,-11 -18,-12l-192 -35c-14,-2 -28,7 -31,21 -2,15 7,28 22,31l125 23 -355 222c-12,7 -16,24 -8,36 7,12 24,16 36,8l355 -222 -35 123c-4,14 5,29 19,32 14,4 28,-4 32,-18l0 0 53 -188c2,-7 1,-15 -3,-21z"/>
   <path class="fil3" d="M660 854c-14,4 -28,-4 -32,-18l-19 -65 -147 -147 0 0c1,1 1,2 2,3 4,6 5,14 3,21l-53 188 0 0c-4,14 -18,22 -32,18 -14,-3 -23,-18 -19,-32l35 -123 -249 156c81,117 216,194 368,194 104,0 199,-36 275,-95l-115 -115c-3,7 -9,13 -17,15z"/>
   <path class="fil2" d="M888 852c-81,119 -217,197 -371,197 -152,0 -287,-77 -368,-194l-34 21c88,128 235,212 402,212 169,0 317,-85 404,-215l-33 -21z"/>
   <path class="fil4" d="M1027 877l-355 -222 125 -23c14,-3 24,-16 21,-31 -2,-14 -16,-23 -30,-21l-193 35c-7,1 -13,6 -17,12 -4,6 -5,14 -3,21l53 188c4,14 18,22 32,18 14,-3 22,-18 18,-32l0 0 -34 -123 355 222c12,8 28,4 36,-8 8,-12 4,-29 -8,-36z"/>
   <g>
    <path class="fil2" d="M492 155l0 -39c-257,13 -461,226 -461,486 0,83 20,161 57,229l34 -21c-33,-62 -52,-133 -52,-208 0,-238 187,-433 422,-447z"/>
    <path class="fil2" d="M544 116l0 39c234,14 420,209 420,447 0,73 -18,143 -50,205l34 21c36,-68 56,-145 56,-226 0,-260 -204,-472 -460,-486z"/>
   </g>
   <path class="fil5" d="M667 349c-11,-10 -27,-9 -37,2l0 0 -86 94 0 -419c0,-14 -12,-26 -26,-26 -15,0 -26,12 -26,26l-1 419 -85 -95c-10,-10 -27,-11 -37,-1 -11,9 -12,26 -2,37l131 145c5,5 12,8 20,8 7,0 14,-3 19,-8l132 -145c9,-11 9,-27 -2,-37z"/>
  </g>
 </g>
</svg>
