<?xml version="1.0" encoding="UTF-8"?>
<!DOCTYPE svg PUBLIC "-//W3C//DTD SVG 1.1//EN" "http://www.w3.org/Graphics/SVG/1.1/DTD/svg11.dtd">
<!-- Creator: CorelDRAW X8 -->
<svg xmlns="http://www.w3.org/2000/svg" xml:space="preserve" width="25.4mm" height="25.4mm" version="1.1" style="shape-rendering:geometricPrecision; text-rendering:geometricPrecision; image-rendering:optimizeQuality; fill-rule:evenodd; clip-rule:evenodd"
viewBox="0 0 1524 1524"
 xmlns:xlink="http://www.w3.org/1999/xlink">
 <defs>
  <style type="text/css">
   <![CDATA[
    .fil0 {fill:#336699}
   ]]>
  </style>
 </defs>
 <g id="Camada_x0020_1">
  <metadata id="CorelCorpID_0Corel-Layer"/>
  <g id="_2630942296176">
   <g id="forum">
    <path class="fil0" d="M1448 305l-153 0 0 686 -990 0 0 152c0,46 30,76 76,76l838 0 305 305 0 -1143c0,-46 -30,-76 -76,-76zm-305 457l0 -686c0,-46 -30,-76 -76,-76l-991 0c-46,0 -76,30 -76,76l0 1067 305 -305 762 0c46,0 76,-30 76,-76z"/>
   </g>
  </g>
 </g>
</svg>
