<?xml version="1.0" encoding="UTF-8"?>
<!DOCTYPE svg PUBLIC "-//W3C//DTD SVG 1.1//EN" "http://www.w3.org/Graphics/SVG/1.1/DTD/svg11.dtd">
<!-- Creator: CorelDRAW X8 -->
<svg xmlns="http://www.w3.org/2000/svg" xml:space="preserve" width="33.8666mm" height="33.8684mm" version="1.1" style="shape-rendering:geometricPrecision; text-rendering:geometricPrecision; image-rendering:optimizeQuality; fill-rule:evenodd; clip-rule:evenodd"
viewBox="0 0 1042 1042"
 xmlns:xlink="http://www.w3.org/1999/xlink">
 <defs>
  <style type="text/css">
   <![CDATA[
    .fil1 {fill:lime}
    .fil0 {fill:#98BBBD}
    .fil2 {fill:#E6E6E6}
   ]]>
  </style>
 </defs>
 <g id="Camada_x0020_1">
  <metadata id="CorelCorpID_0Corel-Layer"/>
  <path class="fil0" d="M874 19c-15,-1 -27,11 -27,27l-1 68c-89,-71 -202,-114 -325,-114 -288,0 -521,233 -521,521 0,107 33,207 88,290 9,13 26,16 38,8 13,-9 16,-26 8,-38l0 0c-50,-74 -79,-164 -79,-260 0,-129 52,-245 136,-330 85,-84 201,-136 330,-136 109,0 208,37 287,99l-62 13c-15,3 -24,17 -21,32 3,15 18,24 32,21l142 -29 2 -145c1,-15 -11,-27 -27,-27z"/>
  <path class="fil1" d="M946 219c-9,-12 -26,-15 -38,-6 -13,9 -15,26 -7,38l0 0c55,76 86,169 86,270 0,129 -52,245 -136,330 -85,84 -201,136 -330,136 -111,0 -212,-38 -292,-103l68 -14c15,-3 24,-17 21,-32 -3,-15 -17,-24 -32,-21l-142 29 -2 144c0,16 12,28 27,28 15,0 27,-12 27,-27l2 -62c88,71 201,113 323,113 288,0 521,-233 521,-521 0,-112 -36,-217 -96,-302z"/>
  <path class="fil2" d="M479 524c-93,21 -162,102 -162,201l411 0c0,-99 -69,-180 -161,-201 41,-17 69,-57 69,-105 0,-63 -51,-114 -113,-114 -63,0 -114,51 -114,114 0,48 28,88 70,105z"/>
 </g>
</svg>
