<?xml version="1.0" encoding="UTF-8"?>
<!DOCTYPE svg PUBLIC "-//W3C//DTD SVG 1.1//EN" "http://www.w3.org/Graphics/SVG/1.1/DTD/svg11.dtd">
<!-- Creator: CorelDRAW X8 -->
<svg xmlns="http://www.w3.org/2000/svg" xml:space="preserve" width="23.231mm" height="23.3811mm" version="1.1" style="shape-rendering:geometricPrecision; text-rendering:geometricPrecision; image-rendering:optimizeQuality; fill-rule:evenodd; clip-rule:evenodd"
viewBox="0 0 1418 1427"
 xmlns:xlink="http://www.w3.org/1999/xlink">
 <defs>
  <style type="text/css">
   <![CDATA[
    .fil0 {fill:#00CCFF}
    .fil1 {fill:white}
   ]]>
  </style>
 </defs>
 <g id="Camada_x0020_1">
  <metadata id="CorelCorpID_0Corel-Layer"/>
  <path class="fil0" d="M0 147l0 1124 834 156 0 -150 468 0c32,0 61,-13 82,-34 21,-21 34,-50 34,-82l0 -913c0,-32 -13,-61 -34,-82 -21,-21 -50,-34 -82,-34l-467 0 0 -132 -835 147zm849 876l402 0 0 62 -402 0 0 134 453 0c16,0 31,-6 41,-17 10,-10 17,-25 17,-41l0 -913c0,-16 -7,-31 -17,-41 -10,-11 -25,-17 -41,-17l-453 0 0 119 402 0 0 62 -402 0 0 81 402 0 0 62 -402 0 0 81 402 0 0 62 -402 0 0 81 402 0 0 62 -402 0 0 80 402 0 0 62 -402 0 0 81z"/>
  <path class="fil1" d="M576 465l-57 331 -3 -10c0,-3 -1,-6 -2,-9 -11,-51 -60,-299 -62,-302 -14,-1 -31,1 -46,2l-34 1c-2,1 -10,1 -11,2l-63 290c-1,3 -1,6 -2,10 0,1 -1,3 -1,4 -1,4 0,3 -2,5l-24 -151c-9,-50 -16,-101 -26,-150l-82 3c5,35 13,72 20,107l42 209c2,12 19,103 21,106 3,2 41,3 46,4 14,0 33,3 47,2 7,-43 23,-108 32,-153l24 -115c2,-10 5,-32 8,-39 11,53 21,106 32,159 11,52 23,105 33,157 25,0 77,11 96,0 6,-3 13,-43 15,-50 23,-93 42,-184 64,-277 5,-24 10,-47 16,-70 5,-24 11,-48 15,-71l-96 5z"/>
 </g>
</svg>
