<?xml version="1.0" encoding="UTF-8"?>
<!DOCTYPE svg PUBLIC "-//W3C//DTD SVG 1.1//EN" "http://www.w3.org/Graphics/SVG/1.1/DTD/svg11.dtd">
<!-- Creator: CorelDRAW X8 -->
<svg xmlns="http://www.w3.org/2000/svg" xml:space="preserve" width="14.1887mm" height="17.7578mm" version="1.1" style="shape-rendering:geometricPrecision; text-rendering:geometricPrecision; image-rendering:optimizeQuality; fill-rule:evenodd; clip-rule:evenodd"
viewBox="0 0 693 867"
 xmlns:xlink="http://www.w3.org/1999/xlink">
 <defs>
  <style type="text/css">
   <![CDATA[
    .fil0 {fill:#00CCFF}
   ]]>
  </style>
 </defs>
 <g id="Camada_x0020_1">
  <metadata id="CorelCorpID_0Corel-Layer"/>
  <g id="_2630757528272">
   <g>
    <path class="fil0" d="M693 735l-25 -571c-4,-92 -79,-164 -172,-164l-299 0c-93,0 -168,72 -172,164l-25 571c0,0 0,1 0,1 0,73 59,131 131,131l431 0c72,0 131,-58 131,-131 0,0 0,-1 0,-1zm-610 -568c2,-61 52,-109 114,-109l299 0c62,0 112,48 114,109l23 509 -573 0 23 -509zm479 643l-431 0c-40,0 -73,-33 -73,-73l0 -3 577 0 0 3c0,40 -33,73 -73,73z"/>
   </g>
   <g>
   </g>
   <g>
   </g>
   <g>
   </g>
   <g>
   </g>
   <g>
   </g>
   <g>
   </g>
   <g>
   </g>
   <g>
   </g>
   <g>
   </g>
   <g>
   </g>
   <g>
   </g>
   <g>
   </g>
   <g>
   </g>
   <g>
   </g>
   <g>
   </g>
  </g>
 </g>
</svg>
