<?xml version="1.0" encoding="UTF-8"?>
<!DOCTYPE svg PUBLIC "-//W3C//DTD SVG 1.1//EN" "http://www.w3.org/Graphics/SVG/1.1/DTD/svg11.dtd">
<!-- Creator: CorelDRAW X8 -->
<svg xmlns="http://www.w3.org/2000/svg" xml:space="preserve" width="33.8666mm" height="32.0878mm" version="1.1" style="shape-rendering:geometricPrecision; text-rendering:geometricPrecision; image-rendering:optimizeQuality; fill-rule:evenodd; clip-rule:evenodd"
viewBox="0 0 2822 2674"
 xmlns:xlink="http://www.w3.org/1999/xlink">
 <defs>
  <style type="text/css">
   <![CDATA[
    .fil5 {fill:lime}
    .fil3 {fill:#1F4254}
    .fil4 {fill:#999999}
    .fil8 {fill:#A4ABB1}
    .fil7 {fill:#C5CED3}
    .fil6 {fill:#D9DDDE}
    .fil1 {fill:#E6E6E6}
    .fil0 {fill:#FA634E}
    .fil2 {fill:white}
   ]]>
  </style>
 </defs>
 <g id="Camada_x0020_1">
  <metadata id="CorelCorpID_0Corel-Layer"/>
  <g id="_2630887455824">
   <rect class="fil0" y="200" width="2599" height="615"/>
   <path class="fil1" d="M2599 2082l0 248c-4,100 -83,178 -174,193 -36,6 -2230,4 -2256,-1 -89,-16 -166,-93 -169,-197l0 -32c2,-493 0,-986 0,-1479l2599 0 0 47c0,407 0,814 0,1221z"/>
   <g>
    <g>
     <circle class="fil2" cx="1983" cy="509" r="187"/>
     <rect class="fil3" x="1930" width="107" height="546" rx="54" ry="54"/>
    </g>
    <g>
     <circle class="fil2" cx="615" cy="509" r="187"/>
     <rect class="fil3" x="562" width="107" height="546" rx="54" ry="54"/>
    </g>
   </g>
   <g>
    <rect class="fil4" x="884" y="1138" width="340.289" height="99.3001" rx="45" ry="50"/>
    <rect class="fil4" x="884" y="1449" width="340.289" height="99.3001" rx="45" ry="50"/>
    <rect class="fil4" x="884" y="1759" width="340.289" height="99.3001" rx="45" ry="50"/>
    <rect class="fil4" x="1375" y="1138" width="340.289" height="99.3001" rx="45" ry="50"/>
    <rect class="fil4" x="1375" y="1449" width="340.289" height="99.3001" rx="45" ry="50"/>
    <rect class="fil4" x="1375" y="1759" width="340.289" height="99.3001" rx="45" ry="50"/>
    <rect class="fil4" x="1865" y="1138" width="340.289" height="99.3001" rx="45" ry="50"/>
    <rect class="fil4" x="1865" y="1449" width="340.289" height="99.3001" rx="45" ry="50"/>
    <rect class="fil4" x="1865" y="1759" width="340.289" height="99.3001" rx="45" ry="50"/>
    <rect class="fil5" x="393" y="1449" width="340.289" height="99.3001" rx="45" ry="50"/>
    <rect class="fil5" x="393" y="1759" width="340.289" height="99.3001" rx="45" ry="50"/>
    <rect class="fil4" x="884" y="2070" width="340.289" height="99.3001" rx="45" ry="50"/>
    <rect class="fil4" x="1375" y="2070" width="340.289" height="99.3001" rx="45" ry="50"/>
    <rect class="fil4" x="1865" y="2070" width="340.289" height="99.3001" rx="45" ry="50"/>
    <rect class="fil5" x="393" y="2070" width="340.289" height="99.3001" rx="45" ry="50"/>
   </g>
   <g>
    <path class="fil6" d="M1994 2318c0,-57 64,-59 64,0 0,60 12,128 -32,128 -44,0 -32,-69 -32,-128zm309 -159c21,-9 34,8 44,18l70 71c14,26 -14,75 -60,29l-70 -72c-6,-9 -7,-18 -2,-30 4,-10 11,-12 18,-16zm-575 0c19,-7 38,4 42,22 4,23 -15,36 -25,46 -12,12 -57,61 -71,66 -20,8 -38,-6 -42,-22 -4,-23 14,-35 24,-45 16,-16 54,-59 72,-67zm-218 -289c11,-2 100,-3 113,-1 38,6 38,55 3,63 -11,2 -104,2 -116,0 -36,-5 -42,-54 0,-62zm138 -360c24,-13 39,7 49,17l69 69c10,17 2,39 -14,46 -30,13 -67,-37 -81,-51 -12,-12 -67,-57 -23,-81zm1107 391l-203 0c-7,42 -44,32 -85,32 -16,0 -44,2 -59,-1 -18,-4 -23,-11 -27,-30l-227 -1c-9,100 -134,142 -202,72 -26,-27 -44,-82 -23,-130 16,-37 47,-63 97,-70l0 -270c-42,-7 -32,-44 -32,-87 0,-42 -10,-76 32,-84l0 -160c-182,-15 -429,114 -544,260 -133,171 -201,391 -146,621 36,148 111,261 191,345 14,14 24,19 36,31 129,128 367,200 555,176 74,-10 153,-29 211,-58 79,-41 87,-41 166,-102 9,-7 10,-10 18,-18 61,-58 57,-51 110,-122 59,-79 145,-267 132,-404z"/>
    <path class="fil7" d="M2026 1172c140,-11 315,52 420,127l100 83c62,64 108,135 147,216 34,71 70,209 62,303 13,137 -73,325 -132,404 -53,71 -49,64 -110,122 -8,8 -9,11 -18,18 -79,61 -87,61 -166,102 -58,29 -137,48 -211,58 -188,24 -426,-48 -555,-176 -12,-12 -22,-17 -36,-31 -80,-84 -155,-197 -191,-345 -55,-230 13,-450 146,-621 115,-146 362,-275 544,-260zm-257 -225l0 18c0,39 43,78 81,78l120 0 0 66c-79,0 -220,44 -291,83 -83,44 -152,95 -214,160 -40,42 -87,111 -116,162 -12,21 -22,40 -31,64 -65,157 -86,308 -48,481 28,126 80,226 158,325 26,34 41,48 69,76 30,30 103,84 138,104 137,79 251,110 427,110 315,0 617,-228 716,-527 9,-27 15,-45 22,-74 49,-194 14,-409 -83,-576 -9,-15 -20,-29 -28,-46 29,-44 70,-43 70,-116 0,-41 -47,-77 -69,-100 -34,-34 -96,-111 -168,-42 -13,13 -35,33 -45,47 -73,-39 -66,-49 -175,-89 -68,-24 -95,-28 -162,-39 -10,-2 -48,-6 -61,-6l0 -63 124 0c38,0 81,-40 81,-78l0 -18c0,-37 -40,-77 -78,-77l-359 0c-38,0 -78,40 -78,77z"/>
    <path class="fil0" d="M2375 1510c20,-11 41,2 45,20 5,23 -11,33 -21,43 -11,11 -60,63 -70,68 -25,13 -76,-12 -25,-63 16,-16 54,-58 71,-68zm-349 -178c42,8 32,45 32,88 0,41 10,76 -32,83l0 270c75,-4 135,52 128,128l227 1c5,-44 44,-33 86,-33 40,0 79,-10 85,32l203 0c8,-94 -28,-232 -62,-303 -39,-81 -85,-152 -147,-216l-100 -83c-105,-75 -280,-138 -420,-127l0 160z"/>
    <path class="fil5" d="M2154 1901c7,-76 -53,-132 -128,-128 -50,7 -81,33 -97,70 -21,48 -3,103 23,130 68,70 193,28 202,-72z"/>
    <path class="fil5" d="M2381 1902c4,19 9,26 27,30 15,3 43,1 59,1 41,0 78,10 85,-32 -6,-42 -45,-32 -85,-32 -42,0 -81,-11 -86,33z"/>
    <path class="fil5" d="M2026 1503c42,-7 32,-42 32,-83 0,-43 10,-80 -32,-88 -42,8 -32,42 -32,84 0,43 -10,80 32,87z"/>
    <path class="fil8" d="M1510 1870c-42,8 -36,57 0,62 12,2 105,2 116,0 35,-8 35,-57 -3,-63 -13,-2 -102,-1 -113,1z"/>
    <path class="fil8" d="M1994 2318c0,59 -12,128 32,128 44,0 32,-68 32,-128 0,-59 -64,-57 -64,0z"/>
    <path class="fil5" d="M2375 1510c-17,10 -55,52 -71,68 -51,51 0,76 25,63 10,-5 59,-57 70,-68 10,-10 26,-20 21,-43 -4,-18 -25,-31 -45,-20z"/>
    <path class="fil8" d="M1728 2159c-18,8 -56,51 -72,67 -10,10 -28,22 -24,45 4,16 22,30 42,22 14,-5 59,-54 71,-66 10,-10 29,-23 25,-46 -4,-18 -23,-29 -42,-22z"/>
    <path class="fil8" d="M1648 1510c-44,24 11,69 23,81 14,14 51,64 81,51 16,-7 24,-29 14,-46l-69 -69c-10,-10 -25,-30 -49,-17z"/>
    <path class="fil8" d="M2303 2159c-7,4 -14,6 -18,16 -5,12 -4,21 2,30l70 72c46,46 74,-3 60,-29l-70 -71c-10,-10 -23,-27 -44,-18z"/>
   </g>
  </g>
 </g>
</svg>
