<?xml version="1.0" encoding="UTF-8"?>
<!DOCTYPE svg PUBLIC "-//W3C//DTD SVG 1.1//EN" "http://www.w3.org/Graphics/SVG/1.1/DTD/svg11.dtd">
<!-- Creator: CorelDRAW X8 -->
<svg xmlns="http://www.w3.org/2000/svg" xml:space="preserve" width="25.4001mm" height="25.4044mm" version="1.1" style="shape-rendering:geometricPrecision; text-rendering:geometricPrecision; image-rendering:optimizeQuality; fill-rule:evenodd; clip-rule:evenodd"
viewBox="0 0 603 603"
 xmlns:xlink="http://www.w3.org/1999/xlink">
 <defs>
  <style type="text/css">
   <![CDATA[
    .fil0 {fill:#336699}
   ]]>
  </style>
 </defs>
 <g id="Camada_x0020_1">
  <metadata id="CorelCorpID_0Corel-Layer"/>
  <g id="_2630893020528">
   <path class="fil0" d="M145 114c-9,-8 -22,-8 -31,0 -25,25 -38,58 -38,93 0,35 13,68 38,93 4,5 10,7 16,7 5,0 11,-2 15,-7 9,-8 9,-22 0,-31 -17,-16 -26,-38 -26,-62 0,-23 9,-45 26,-62 9,-8 9,-22 0,-31z"/>
   <path class="fil0" d="M300 114c-8,-8 -22,-8 -31,0 -8,9 -8,23 0,31 35,34 35,90 0,124 -8,9 -8,23 0,31 5,5 10,7 16,7 5,0 11,-2 15,-7 52,-51 52,-134 0,-186z"/>
   <path class="fil0" d="M596 516l-208 -208c44,-79 33,-180 -34,-247 -39,-39 -91,-61 -147,-61 -55,0 -107,22 -146,61 -81,81 -81,212 0,293 39,39 91,61 146,61 36,0 70,-10 101,-26l208 207c4,5 9,7 15,7 6,0 11,-2 15,-7l50 -49c9,-9 9,-23 0,-31zm-505 -193c-63,-64 -63,-168 0,-231 31,-31 72,-48 116,-48 44,0 85,17 116,48 64,63 64,167 0,231 -31,31 -72,48 -116,48 -44,0 -85,-17 -116,-48zm263 31c3,-3 6,-7 9,-10l147 147 -19 19 -147 -147c3,-3 7,-6 10,-9zm177 196l-9 -9 19 -19 9 9 -19 19z"/>
  </g>
 </g>
</svg>
