<?xml version="1.0" encoding="UTF-8"?>
<!DOCTYPE svg PUBLIC "-//W3C//DTD SVG 1.1//EN" "http://www.w3.org/Graphics/SVG/1.1/DTD/svg11.dtd">
<!-- Creator: CorelDRAW X8 -->
<svg xmlns="http://www.w3.org/2000/svg" xml:space="preserve" width="23.5124mm" height="23.5164mm" version="1.1" style="shape-rendering:geometricPrecision; text-rendering:geometricPrecision; image-rendering:optimizeQuality; fill-rule:evenodd; clip-rule:evenodd"
viewBox="0 0 1848 1849"
 xmlns:xlink="http://www.w3.org/1999/xlink">
 <defs>
  <style type="text/css">
   <![CDATA[
    .fil0 {fill:#00CCFF}
   ]]>
  </style>
 </defs>
 <g id="Camada_x0020_1">
  <metadata id="CorelCorpID_0Corel-Layer"/>
  <g id="_2630743087984">
   <g>
    <path class="fil0" d="M1404 350c26,-26 68,-26 94,0 76,76 118,178 118,286 0,107 -42,209 -118,285 -13,13 -30,19 -47,19 -17,0 -34,-6 -47,-19 -26,-26 -26,-69 0,-95 51,-51 79,-118 79,-190 0,-72 -28,-140 -79,-191 -26,-26 -26,-69 0,-95z"/>
    <path class="fil0" d="M928 350c26,-26 68,-26 94,0 26,26 26,69 0,95 -105,105 -105,276 0,381 26,26 26,69 0,95 -13,13 -30,19 -47,19 -17,0 -34,-6 -47,-19 -158,-158 -158,-413 0,-571z"/>
    <path class="fil0" d="M20 1581l637 -637c-134,-242 -98,-553 107,-758 120,-120 279,-186 449,-186 170,0 329,66 449,186 248,248 248,651 0,899 -120,120 -279,186 -449,186 -110,0 -215,-28 -308,-80l-638 638c-13,13 -30,20 -47,20 -17,0 -34,-7 -47,-20l-153 -153c-27,-26 -27,-69 0,-95zm1548 -591c195,-195 195,-514 0,-709 -95,-95 -221,-147 -355,-147 -134,0 -260,52 -355,147 -195,195 -195,514 0,709 95,95 221,147 355,147 134,0 260,-52 355,-147zm-804 95c-10,-10 -19,-20 -29,-30l-450 450 59 58 450 -450c-10,-9 -21,-18 -30,-28zm-544 602l29 -29 -58 -59 -29 30 58 58z"/>
   </g>
   <g>
   </g>
   <g>
   </g>
   <g>
   </g>
   <g>
   </g>
   <g>
   </g>
   <g>
   </g>
   <g>
   </g>
   <g>
   </g>
   <g>
   </g>
   <g>
   </g>
   <g>
   </g>
   <g>
   </g>
   <g>
   </g>
   <g>
   </g>
   <g>
   </g>
  </g>
 </g>
</svg>
