<?xml version="1.0" encoding="UTF-8"?>
<!DOCTYPE svg PUBLIC "-//W3C//DTD SVG 1.1//EN" "http://www.w3.org/Graphics/SVG/1.1/DTD/svg11.dtd">
<!-- Creator: CorelDRAW X8 -->
<svg xmlns="http://www.w3.org/2000/svg" xml:space="preserve" width="15.2428mm" height="18.4682mm" version="1.1" style="shape-rendering:geometricPrecision; text-rendering:geometricPrecision; image-rendering:optimizeQuality; fill-rule:evenodd; clip-rule:evenodd"
viewBox="0 0 601 729"
 xmlns:xlink="http://www.w3.org/1999/xlink">
 <defs>
  <style type="text/css">
   <![CDATA[
    .fil0 {fill:#00CCFF}
   ]]>
  </style>
 </defs>
 <g id="Camada_x0020_1">
  <metadata id="CorelCorpID_0Corel-Layer"/>
  <g id="_2630893057200">
   <g>
    <path class="fil0" d="M521 0l-306 0c-45,0 -81,36 -81,81l0 10 -53 0c-45,0 -81,36 -81,80l0 477c0,44 36,81 81,81l306 0c44,0 80,-37 80,-81l0 -10 54 0c44,0 80,-36 80,-81l0 -476c0,-45 -36,-81 -80,-81zm-106 648c0,16 -12,29 -28,29l-306 0c-16,0 -29,-13 -29,-29l0 -477c0,-16 13,-28 29,-28l306 0c16,0 28,12 28,28l0 477 0 0zm134 -91c0,16 -12,29 -28,29l-54 0 0 -415c0,-44 -36,-80 -80,-80l-201 0 0 -10c0,-16 13,-29 29,-29l306 0c16,0 28,13 28,29l0 476z"/>
   </g>
   <g>
   </g>
   <g>
   </g>
   <g>
   </g>
   <g>
   </g>
   <g>
   </g>
   <g>
   </g>
   <g>
   </g>
   <g>
   </g>
   <g>
   </g>
   <g>
   </g>
   <g>
   </g>
   <g>
   </g>
   <g>
   </g>
   <g>
   </g>
   <g>
   </g>
  </g>
 </g>
</svg>
