<?xml version="1.0" encoding="UTF-8"?>
<!DOCTYPE svg PUBLIC "-//W3C//DTD SVG 1.1//EN" "http://www.w3.org/Graphics/SVG/1.1/DTD/svg11.dtd">
<!-- Creator: CorelDRAW X8 -->
<svg xmlns="http://www.w3.org/2000/svg" xml:space="preserve" width="25.4003mm" height="12.0203mm" version="1.1" style="shape-rendering:geometricPrecision; text-rendering:geometricPrecision; image-rendering:optimizeQuality; fill-rule:evenodd; clip-rule:evenodd"
viewBox="0 0 477 226"
 xmlns:xlink="http://www.w3.org/1999/xlink">
 <defs>
  <style type="text/css">
   <![CDATA[
    .fil1 {fill:white}
    .fil0 {fill:white;fill-rule:nonzero}
   ]]>
  </style>
 </defs>
 <g id="Camada_x0020_1">
  <metadata id="CorelCorpID_0Corel-Layer"/>
  <g id="_2067706954448">
   <path class="fil0" d="M0 0l32 0c21,0 36,1 43,2 8,2 14,6 19,13 5,7 7,18 7,33 0,13 -2,22 -5,27 -3,5 -10,7 -20,8 9,2 15,5 18,9 3,4 5,7 6,10 1,4 1,12 1,26l0 46 -42 0 0 -58c0,-9 -1,-15 -2,-17 -2,-2 -5,-3 -12,-3l0 78 -45 0 0 -174zm45 30l0 39c5,0 9,-1 11,-3 2,-1 3,-6 3,-13l0 -10c0,-5 -1,-9 -3,-11 -2,-1 -5,-2 -11,-2z"/>
   <path class="fil0" d="M174 0l0 116c0,18 0,29 -1,34 0,5 -2,10 -5,14 -3,4 -6,6 -11,8 -5,1 -13,2 -23,2l-22 0 0 -30c2,0 4,0 5,0 4,0 6,-1 8,-2 2,-2 3,-4 3,-6 0,-2 1,-7 1,-13l0 -123 45 0z"/>
   <path class="fil0" d="M294 0l0 116c0,14 0,23 -1,28 -1,6 -3,11 -8,17 -4,5 -9,10 -16,13 -7,3 -15,4 -25,4 -10,0 -19,-2 -27,-5 -8,-4 -14,-8 -18,-14 -4,-5 -6,-11 -7,-17 -1,-6 -1,-19 -1,-39l0 -103 45 0 0 131c0,7 1,12 1,14 1,2 3,3 5,3 3,0 5,-1 6,-3 1,-2 1,-8 1,-17l0 -128 45 0z"/>
   <path class="fil0" d="M312 0l32 0c21,0 36,1 43,2 8,2 14,6 19,13 5,7 7,18 7,33 0,13 -2,22 -5,27 -3,5 -10,7 -20,8 9,2 15,5 18,9 3,4 5,7 6,10 1,4 1,12 1,26l0 46 -42 0 0 -58c0,-9 -1,-15 -2,-17 -2,-2 -5,-3 -12,-3l0 78 -45 0 0 -174zm45 30l0 39c5,0 9,-1 11,-3 2,-1 3,-6 3,-13l0 -10c0,-5 -1,-9 -3,-11 -2,-1 -5,-2 -11,-2z"/>
   <polygon class="fil0" points="476,0 476,174 431,174 431,0 "/>
   <path class="fil0" d="M2 194l5 0c4,0 7,0 8,0 1,1 3,1 3,3 1,1 2,3 2,5 0,3 -1,4 -1,5 -1,1 -2,2 -4,2 2,0 3,1 3,1 1,1 1,2 1,2 1,1 1,2 1,5l0 8 -8 0 0 -10c0,-2 0,-3 0,-3 -1,-1 -1,-1 -2,-1l0 14 -8 0 0 -31zm8 5l0 7c1,0 1,0 2,0 0,0 0,-1 0,-3l0 -1c0,-1 0,-2 0,-2 -1,-1 -1,-1 -2,-1zm42 10l0 6c0,2 0,4 0,5 0,1 -1,2 -1,3 -1,1 -2,2 -3,2 -2,1 -3,1 -4,1 -2,0 -4,0 -5,-1 -1,0 -2,-1 -3,-2 0,0 -1,-1 -1,-2 0,-1 0,-3 0,-5l0 -7c0,-2 0,-4 0,-6 1,-1 2,-2 3,-3 1,-1 3,-1 5,-1 2,0 3,0 5,1 1,0 2,1 3,2 0,1 1,2 1,2 0,1 0,3 0,5zm-7 -2c0,-2 0,-3 -1,-3 0,0 0,0 -1,0 0,0 0,0 0,0 -1,0 -1,1 -1,3l0 11c0,1 0,2 1,3 0,0 0,0 0,0 1,0 1,0 1,0 1,-1 1,-1 1,-2l0 -12zm30 -7l0 2c0,-1 1,-2 2,-2 1,-1 2,-1 3,-1 2,0 3,1 5,3 0,-1 1,-2 2,-2 1,-1 2,-1 3,-1 1,0 2,0 3,1 1,1 1,1 1,2 1,1 1,3 1,5l0 18 -8 0 0 -17c0,-2 0,-3 0,-4 0,0 0,0 -1,0 0,0 -1,0 -1,0 0,1 0,2 0,4l0 17 -8 0 0 -16c0,-3 0,-4 0,-5 0,0 0,0 -1,0 0,0 -1,0 -1,0 0,0 0,1 0,1 0,0 0,1 0,2l0 18 -8 0 0 -25 8 0zm42 9l-8 0 0 -1c0,-2 1,-4 1,-5 1,-1 2,-2 3,-3 1,-1 3,-1 5,-1 3,0 5,0 6,1 1,1 2,3 3,4 0,1 0,4 0,8l0 13 -8 0 0 -2c0,1 -1,2 -1,2 -1,1 -2,1 -3,1 -1,0 -3,-1 -4,-1 -1,-1 -2,-3 -2,-5l0 -3c0,-2 1,-3 1,-4 1,0 2,-1 5,-2 2,-1 4,-2 4,-2 0,0 0,-1 0,-2 0,-2 0,-2 0,-3 0,0 -1,0 -1,0 -1,0 -1,0 -1,0 0,0 0,1 0,3l0 2zm2 4c-1,1 -2,2 -2,2 0,1 0,2 0,3 0,1 0,2 0,3 0,0 0,0 1,0 1,0 1,0 1,0 0,-1 0,-1 0,-3l0 -5zm39 -5l-7 0 0 -2c0,-1 0,-2 0,-2 0,0 -1,0 -1,0 -1,0 -1,0 -1,0 -1,0 -1,1 -1,1 0,1 0,2 1,2 0,0 0,1 1,1 0,1 1,1 3,2 2,1 4,2 4,3 1,1 1,3 1,5 0,2 0,3 0,4 -1,1 -2,2 -3,3 -1,0 -3,1 -5,1 -2,0 -3,-1 -5,-1 -1,-1 -2,-2 -3,-3 0,-1 0,-2 0,-5l0 -1 6 0 0 2c0,1 1,2 1,3 0,0 0,0 1,0 0,0 1,0 1,0 0,-1 0,-1 0,-2 0,-1 0,-2 0,-2 -1,-1 -2,-2 -5,-3 -2,-1 -3,-3 -4,-4 0,-1 -1,-2 -1,-3 0,-2 1,-4 1,-5 1,-1 2,-2 3,-2 1,-1 3,-1 4,-1 2,0 3,0 5,1 1,0 2,1 2,1 1,1 1,2 2,2 0,1 0,2 0,3l0 2zm32 1l0 6c0,2 0,4 0,5 0,1 -1,2 -2,3 0,1 -1,2 -3,2 -1,1 -2,1 -4,1 -1,0 -3,0 -4,-1 -1,0 -2,-1 -3,-2 0,0 -1,-1 -1,-2 0,-1 -1,-3 -1,-5l0 -7c0,-2 1,-4 1,-6 1,-1 2,-2 3,-3 1,-1 3,-1 5,-1 2,0 3,0 5,1 1,0 2,1 2,2 1,1 2,2 2,2 0,1 0,3 0,5zm-8 -2c0,-2 0,-3 0,-3 0,0 0,0 -1,0 0,0 0,0 -1,0 0,0 0,1 0,3l0 11c0,1 0,2 0,3 1,0 1,0 1,0 1,0 1,0 1,0 0,-1 0,-1 0,-2l0 -12zm33 -13l0 4c-2,0 -3,0 -3,0 0,0 0,1 0,1l0 1 3 0 0 4 -2 0 0 21 -8 0 0 -21 -1 0 0 -4 1 0c0,-2 0,-3 1,-3 0,-1 0,-1 0,-2 1,0 1,-1 2,-1 1,0 2,0 4,0l3 0zm22 2l0 4 2 0 0 4 -2 0 0 14c0,2 0,3 0,3 0,0 1,0 2,0l0 4 -3 0c-2,0 -3,0 -4,0 0,0 -1,0 -2,-1 0,-1 -1,-1 -1,-2 0,0 0,-2 0,-5l0 -13 -2 0 0 -4 2 0 0 -4 8 0z"/>
   <path class="fil0" d="M286 194l0 21c0,3 0,5 -1,6 0,1 0,2 0,2 -1,1 -2,2 -2,2 -1,0 -2,0 -4,0l-4 0 0 -5c0,0 1,0 1,0 1,0 1,0 1,-1 1,0 1,0 1,-1 0,0 0,-1 0,-2l0 -22 8 0zm31 6l0 25 -8 0 0 -2c0,1 -1,2 -2,2 0,1 -1,1 -2,1 -1,0 -2,0 -3,-1 -1,0 -1,-1 -1,-2 -1,0 -1,-1 -1,-2 0,0 0,-2 0,-4l0 -17 7 0 0 17c0,2 0,3 0,4 0,0 1,0 1,0 1,0 1,0 1,0 0,-1 0,-2 0,-4l0 -17 8 0zm21 0l0 3c1,-3 3,-4 5,-4l0 9c-2,0 -3,0 -3,1 -1,0 -1,1 -1,1 -1,1 -1,3 -1,5l0 10 -7 0 0 -25 7 0zm25 0l0 25 -7 0 0 -25 7 0zm3 -8l-6 6 -4 0 3 -6 7 0zm28 2l0 31 -7 0 0 -2c-1,1 -1,2 -2,2 -1,1 -2,1 -3,1 -1,0 -2,-1 -3,-1 0,-1 -1,-2 -1,-2 0,-1 0,-3 0,-5l0 -12c0,-2 0,-3 0,-4 0,-1 1,-1 1,-2 1,-1 2,-1 4,-1 0,0 1,0 2,1 1,0 1,0 2,1l0 -7 7 0zm-7 12c0,-1 0,-2 0,-2 0,0 -1,0 -1,0 0,0 -1,0 -1,0 0,0 0,1 0,2l0 13c0,1 0,1 0,2 0,0 0,0 1,0 0,0 1,0 1,0 0,-1 0,-2 0,-3l0 -12zm29 -12l0 4 -7 0 0 -4 7 0zm0 6l0 25 -7 0 0 -25 7 0zm31 9l-7 0 0 -3c0,-1 0,-1 0,-2 -1,0 -1,0 -1,0 -1,0 -1,0 -1,0 0,0 0,1 0,2l0 12c0,1 0,2 0,3 0,0 0,0 1,0 0,0 1,0 1,-1 0,0 0,-1 0,-2l0 -3 7 0c0,2 0,3 0,4 -1,1 -1,2 -2,3 0,2 -1,2 -2,3 -1,0 -3,1 -4,1 -3,0 -4,-1 -5,-1 -2,-1 -2,-2 -3,-4 0,-1 -1,-3 -1,-5l0 -8c0,-2 0,-4 1,-5 0,-1 1,-2 3,-3 1,-1 3,-1 4,-1 2,0 4,0 5,1 2,1 3,2 3,4 0,1 1,3 1,5zm30 0l0 6c0,2 0,4 0,5 0,1 -1,2 -2,3 0,1 -1,2 -2,2 -2,1 -3,1 -4,1 -2,0 -3,0 -4,-1 -1,0 -2,-1 -3,-2 -1,0 -1,-1 -1,-2 -1,-1 -1,-3 -1,-5l0 -7c0,-2 1,-4 1,-6 0,-1 1,-2 3,-3 1,-1 2,-1 4,-1 2,0 3,0 5,1 1,0 2,1 2,2 1,1 1,2 2,2 0,1 0,3 0,5zm-7 -2c0,-2 0,-3 0,-3 -1,0 -1,0 -1,0 -1,0 -1,0 -1,0 0,0 0,1 0,3l0 11c0,1 0,2 0,3 0,0 0,0 1,0 0,0 0,0 1,0 0,-1 0,-1 0,-2l0 -12z"/>
   <path class="fil1" d="M0 174l45 0 0 -62 0 -13 0 -2 0 -1 3 0 1 0c0,0 0,0 1,0 0,0 0,0 0,0 0,0 0,0 0,0 1,0 1,0 1,0 1,0 1,0 2,0 0,0 0,1 1,1 0,0 1,0 1,0 0,0 0,0 0,1 0,0 1,0 1,0 0,0 0,0 0,0 0,0 0,0 0,0l0 0 1 1c0,0 0,1 0,1 1,0 1,1 1,1 0,1 0,2 0,3l0 0 0 1c1,1 1,2 1,4l0 11 0 7c0,1 0,1 0,3 0,3 0,6 0,10l0 34 3 0 2 0 9 0 15 -4c0,0 0,0 1,0 3,0 9,-3 12,-3 0,-2 0,-6 -2,-6l-9 -3c-2,-1 -4,-2 -6,-3 -2,-1 -3,-3 -4,-5 -1,-1 -1,-3 -1,-5 -1,-2 -1,-5 0,-8l0 -6c1,-4 1,-8 1,-12l0 0 1 -10c0,-13 -1,-12 -1,-14 0,-1 -2,-4 -3,-5 -1,0 -2,-1 -3,-1l-6 -1c-1,0 -2,-1 -3,-1 0,0 -1,0 -1,0 0,-2 0,-1 -1,-2 -1,-1 -3,-1 -5,-1 -1,0 -3,0 -5,0 -2,0 -4,0 -6,0 -1,-1 -3,-1 -4,-1 -2,-1 -3,-1 -5,-2 -1,-2 -2,-3 -3,-5 -1,-1 -1,-3 -1,-5 0,-2 0,-5 0,-7 0,0 0,0 0,0l0 -1c0,-1 0,-1 -1,-2 0,-1 0,-1 0,-2 1,-2 2,-3 4,-5 1,-2 2,-3 1,-5 0,-2 -1,-3 -2,-4l-4 -3c-1,-1 -3,-2 -4,-3l-1 -1 -2 -1c0,-1 0,-1 -1,-1 0,-1 -1,-3 -1,-4 -1,-1 -1,-2 -1,-3 0,-1 0,-3 1,-5 0,-2 1,-4 2,-6l0 0c0,-3 2,-8 1,-10l0 -2c0,-1 -2,-2 -3,-3 -1,0 -2,0 -3,0 -1,0 -2,0 -3,0l-2 1c-1,0 -2,1 -3,1l-3 3c-1,1 -2,2 -3,4 0,0 0,1 0,1 -1,1 0,3 0,3 1,1 1,2 2,3 1,1 2,2 3,3 1,1 2,3 2,5 0,1 0,3 0,5 0,0 0,1 -1,1 0,1 -1,2 -2,3 -1,0 -1,1 -2,1l-4 3c-1,1 -3,5 -4,5 0,13 1,23 0,36l0 1 2 2 1 1c0,1 1,2 1,4 1,1 -1,2 -1,3 0,0 0,1 0,1l0 5 0 4c0,0 0,0 0,0 0,2 0,3 1,5 0,0 -1,1 -1,2 0,0 0,1 0,2 -1,0 -1,1 -1,1 -1,1 -1,1 -2,1l0 61z"/>
   <path class="fil1" d="M11 71c1,-3 0,-5 0,-8l-1 -9 0 -1 -1 2 -2 4 -2 4 -2 3 1 2 1 2c1,2 1,3 2,3 1,0 2,0 2,0l2 -2z"/>
  </g>
 </g>
</svg>
