<?xml version="1.0" encoding="UTF-8"?>
<!DOCTYPE svg PUBLIC "-//W3C//DTD SVG 1.1//EN" "http://www.w3.org/Graphics/SVG/1.1/DTD/svg11.dtd">
<!-- Creator: CorelDRAW X8 -->
<svg xmlns="http://www.w3.org/2000/svg" xml:space="preserve" width="25.3995mm" height="6.3326mm" version="1.1" style="shape-rendering:geometricPrecision; text-rendering:geometricPrecision; image-rendering:optimizeQuality; fill-rule:evenodd; clip-rule:evenodd"
viewBox="0 0 586 146"
 xmlns:xlink="http://www.w3.org/1999/xlink">
 <defs>
  <style type="text/css">
   <![CDATA[
    .fil1 {fill:#29C5F4}
    .fil0 {fill:#29C5F4;fill-rule:nonzero}
   ]]>
  </style>
 </defs>
 <g id="Camada_x0020_1">
  <metadata id="CorelCorpID_0Corel-Layer"/>
  <g id="_3070415102432">
   <path class="fil0" d="M184 110l0 -52 6 0 2 7c4,-5 10,-7 16,-7l0 8c-6,0 -11,2 -15,6l0 38 -9 0zm40 -26c0,12 5,18 15,18 11,0 16,-6 16,-18 0,-13 -5,-19 -16,-19 -10,0 -15,6 -15,19zm-9 0c0,-17 8,-26 24,-26 17,0 25,9 25,26 0,17 -8,26 -25,26 -16,0 -24,-9 -24,-26zm61 26l0 -52 6 0 2 6c5,-4 10,-6 16,-6 8,0 13,2 15,7 6,-5 12,-7 18,-7 11,0 17,6 17,20l0 32 -9 0 0 -33c0,-8 -3,-11 -9,-11 -5,0 -10,2 -14,6l0 38 -9 0 0 -33c0,-8 -3,-11 -10,-11 -5,0 -10,2 -14,6l0 38 -9 0zm87 -16c0,-11 7,-16 21,-16 4,0 9,0 13,1l0 -5c0,-6 -4,-9 -14,-9 -5,0 -11,1 -16,3l0 -8c5,-1 11,-2 16,-2 16,0 23,5 23,16l0 36 -5 0 -3 -5c-5,3 -11,5 -17,5 -12,0 -18,-6 -18,-16zm21 -8c-8,0 -12,2 -12,8 0,5 3,8 9,8 6,0 12,-1 16,-5l0 -11c-4,0 -9,0 -13,0zm37 21l0 -8c6,2 12,3 18,3 8,0 12,-2 12,-7 0,-5 -3,-7 -8,-7l-8 0c-11,0 -16,-5 -16,-15 0,-10 7,-15 21,-15 6,0 12,1 19,2l0 8c-7,-2 -13,-3 -19,-3 -8,0 -13,3 -13,8 0,4 3,7 8,7l8 0c12,0 17,5 17,15 0,10 -7,15 -21,15 -6,0 -12,-1 -18,-3zm58 -23c0,12 6,18 16,18 10,0 15,-6 15,-18 0,-13 -5,-19 -15,-19 -10,0 -16,6 -16,19zm-9 0c0,-17 9,-26 25,-26 16,0 25,9 25,26 0,17 -9,26 -25,26 -16,0 -25,-9 -25,-26zm62 26l0 -55c0,-12 7,-18 21,-18 4,0 8,0 11,2l0 7c-3,-1 -7,-2 -11,-2 -8,0 -12,4 -12,11l0 3 16 0 0 7 -16 0 0 45 -9 0zm32 -60l6 0 2 8 14 0 0 7 -12 0 0 30c0,5 2,7 6,7l6 0 0 8 -9 0c-8,0 -13,-5 -13,-14l0 -46z"/>
   <g>
    <path class="fil1" d="M49 58c21,-13 24,-35 15,-57 16,-2 30,0 44,7 12,6 22,16 28,26 28,43 5,97 -40,111 -35,8 -21,-30 -29,-56 -3,-11 -8,-17 -18,-22 -5,-2 -6,-5 0,-9z"/>
    <path class="fil1" d="M34 137c-12,-8 -22,-20 -28,-33 -4,-8 -5,-17 -6,-26 16,-1 26,5 31,16 2,6 2,16 2,24 1,10 3,16 5,21 -1,-1 -3,-2 -4,-2z"/>
    <path class="fil1" d="M4 50c2,-11 18,-32 26,-35 3,5 6,35 -26,35z"/>
   </g>
  </g>
 </g>
</svg>
