<?xml version="1.0" encoding="UTF-8"?>
<!DOCTYPE svg PUBLIC "-//W3C//DTD SVG 1.1//EN" "http://www.w3.org/Graphics/SVG/1.1/DTD/svg11.dtd">
<!-- Creator: CorelDRAW X8 -->
<svg xmlns="http://www.w3.org/2000/svg" xml:space="preserve" width="19.0502mm" height="25.4mm" version="1.1" style="shape-rendering:geometricPrecision; text-rendering:geometricPrecision; image-rendering:optimizeQuality; fill-rule:evenodd; clip-rule:evenodd"
viewBox="0 0 200 267"
 xmlns:xlink="http://www.w3.org/1999/xlink">
 <defs>
  <style type="text/css">
   <![CDATA[
    .fil0 {fill:#336699}
   ]]>
  </style>
 </defs>
 <g id="Camada_x0020_1">
  <metadata id="CorelCorpID_0Corel-Layer"/>
  <g id="_2630942298384">
   <g id="screen-lock-landscape">
    <path class="fil0" d="M33 267l134 0c20,0 33,-14 33,-34l0 -100c0,-20 -13,-33 -33,-33l0 -33c0,-37 -30,-67 -67,-67 -37,0 -67,30 -67,67l0 33c-20,0 -33,13 -33,33l0 100c0,20 13,34 33,34zm27 -200c0,-24 17,-40 40,-40 23,0 40,16 40,40l0 33 -80 0 0 -33 0 0z"/>
   </g>
  </g>
 </g>
</svg>
