<?xml version="1.0" encoding="UTF-8"?>
<!DOCTYPE svg PUBLIC "-//W3C//DTD SVG 1.1//EN" "http://www.w3.org/Graphics/SVG/1.1/DTD/svg11.dtd">
<!-- Creator: CorelDRAW X8 -->
<svg xmlns="http://www.w3.org/2000/svg" xml:space="preserve" width="41.7407mm" height="41.7407mm" version="1.1" style="shape-rendering:geometricPrecision; text-rendering:geometricPrecision; image-rendering:optimizeQuality; fill-rule:evenodd; clip-rule:evenodd"
viewBox="0 0 6668 6668"
 xmlns:xlink="http://www.w3.org/1999/xlink">
 <defs>
  <style type="text/css">
   <![CDATA[
    .str0 {stroke:#FA634E;stroke-width:108.203}
    .fil0 {fill:none}
    .fil5 {fill:#96A0A8}
    .fil3 {fill:#A4ABB1}
    .fil2 {fill:#C5CED3}
    .fil1 {fill:#F2F2F2}
    .fil4 {fill:#FA634E}
    .fil6 {fill:#FB7360}
    .fil7 {fill:white}
   ]]>
  </style>
 </defs>
 <g id="Camada_x0020_1">
  <metadata id="CorelCorpID_0Corel-Layer"/>
  <g id="_2630942295632">
   <circle class="fil0 str0" cx="3334" cy="3334" r="3280"/>
   <path class="fil1" d="M4830 1995l-2991 0c-69,0 -125,55 -125,124l0 1703 3240 0 0 -1703c0,-69 -56,-124 -124,-124z"/>
   <path class="fil2" d="M4830 1870l-2991 0c-137,0 -249,112 -249,249l0 1703 124 0 0 -1703c0,-69 56,-124 125,-124l2991 0c68,0 124,55 124,124l0 1703 125 0 0 -1703c0,-137 -112,-249 -249,-249z"/>
   <rect class="fil3" x="2960" y="4404" width="748" height="270"/>
   <polygon class="fil2" points="1590,2119 1590,2119 1590,4154 1590,4154 1590,3822 "/>
   <path class="fil4" d="M1590 3822l0 332c0,138 112,250 249,250l1121 0 1870 0c137,0 249,-112 249,-250l0 -332 -3489 0z"/>
   <polygon class="fil5" points="3708,4674 3708,4404 3708,4404 2960,4404 2960,4404 3230,4674 "/>
   <path class="fil2" d="M2628 4798l1454 0c34,0 62,-28 62,-62 0,-34 -28,-62 -62,-62l-1454 0c-34,0 -62,28 -62,62 0,34 28,62 62,62z"/>
   <path class="fil4" d="M3168 3116c-91,0 -166,-74 -166,-166l0 -166 -291 0c-91,0 -166,75 -166,166l0 416c0,91 75,166 166,166l42 0 0 208 249 -208 374 0c91,0 166,-75 166,-166l0 -250 -374 0z"/>
   <polygon class="fil2" points="1590,2120 1590,2120 1590,4155 1590,4155 1590,3823 "/>
   <path class="fil6" d="M3168 3116c-44,0 -84,-17 -114,-46l425 426c38,-31 63,-78 63,-130l0 -250 -374 0z"/>
   <path class="fil7" d="M3957 2286l-789 0c-91,0 -166,74 -166,166l0 498c0,92 75,166 166,166l505 0 243 208 0 -208 41 0c92,0 166,-74 166,-166l0 -498c0,-92 -74,-166 -166,-166z"/>
   <g>
    <circle class="fil4" cx="3355" cy="2847" r="62"/>
    <circle class="fil4" cx="3562" cy="2847" r="62"/>
    <circle class="fil4" cx="3770" cy="2847" r="62"/>
   </g>
  </g>
 </g>
</svg>
