<?xml version="1.0" encoding="UTF-8"?>
<!DOCTYPE svg PUBLIC "-//W3C//DTD SVG 1.1//EN" "http://www.w3.org/Graphics/SVG/1.1/DTD/svg11.dtd">
<!-- Creator: CorelDRAW X8 -->
<svg xmlns="http://www.w3.org/2000/svg" xml:space="preserve" width="25.3999mm" height="23.3786mm" version="1.1" style="shape-rendering:geometricPrecision; text-rendering:geometricPrecision; image-rendering:optimizeQuality; fill-rule:evenodd; clip-rule:evenodd"
viewBox="0 0 674 620"
 xmlns:xlink="http://www.w3.org/1999/xlink">
 <defs>
  <style type="text/css">
   <![CDATA[
    .fil0 {fill:#336699}
   ]]>
  </style>
 </defs>
 <g id="Camada_x0020_1">
  <metadata id="CorelCorpID_0Corel-Layer"/>
  <g id="_2630942298480">
   <path class="fil0" d="M671 528l-38 -86 0 -157 0 0c-6,-158 -136,-285 -296,-285 -159,0 -290,127 -296,285l0 0 0 157 -38 86c-5,10 -4,21 2,30 6,9 16,14 26,14l238 0c10,28 37,48 68,48 32,0 58,-20 68,-48l238 0c10,0 20,-5 26,-14 6,-9 7,-20 2,-30zm-334 -466c129,0 234,105 234,234 0,25 0,85 0,122l-468 0 0 -122c0,-129 105,-234 234,-234zm-258 447l13 -29 490 0 13 29 -516 0z"/>
  </g>
 </g>
</svg>
